<svg width="29" height="28" viewBox="0 0 29 28" fill="none" xmlns="http://www.w3.org/2000/svg">
<g clip-path="url(#clip0_54_1726)">
<path d="M20.0739 18.9777C20.4739 20.5955 20.8739 21.9022 21.2072 23.2711C21.2739 23.5822 21.4072 23.9555 21.4739 24.2666C21.6072 24.8266 21.4739 25.3866 20.8739 25.6977C20.2739 26.0088 19.7405 25.7599 19.3405 25.3244C18.1405 24.0177 16.9405 22.6488 15.7405 21.3422C15.4739 21.0311 15.2072 20.7822 14.7405 20.3466C14.3405 21.6533 13.9405 22.7733 13.5405 23.8933C13.2072 24.8266 12.9405 25.8222 12.4739 26.6933C12.3405 27.0666 11.8072 27.4399 11.4739 27.5022C10.8072 27.5644 10.6072 27.0044 10.5405 26.5066C10.4072 25.1377 10.3405 23.7066 10.2072 22.3377C10.1405 21.4666 10.0739 20.5955 9.94052 19.4755C9.27385 19.7244 8.80719 19.8488 8.34052 20.0355C6.94052 20.5333 5.54051 21.0933 4.20718 21.5911C3.74051 21.7777 3.27385 21.9022 2.80718 21.9644C2.07385 22.0888 1.27385 22.0888 0.807179 21.4044C0.407177 20.8444 0.607177 20.0977 1.40718 19.4133C2.74051 18.2933 4.07385 17.2977 5.47385 16.2399C5.87385 15.9288 6.27385 15.6177 6.74051 15.2444C5.34051 14.6222 3.94051 13.9999 2.67385 13.3777C1.34051 12.7555 0.940512 12.1333 1.20718 11.3866C1.47385 10.6399 2.20718 10.2666 3.60718 10.3911C5.14051 10.5155 6.67385 10.7022 8.20719 10.8266C8.87385 10.8888 9.54052 10.8266 10.4072 10.8266C10.2739 9.89327 10.2739 9.14661 10.1405 8.39994C9.87385 7.1555 9.54052 5.97326 9.27385 4.72881C9.20719 4.29326 9.14052 3.8577 9.14052 3.42214C9.20719 2.79992 9.47385 2.23992 10.2072 2.05326C10.8739 1.86659 11.4072 2.11548 11.7405 2.61326C12.7405 3.79548 13.5405 4.9777 14.4072 6.0977C14.7405 6.5955 15.0739 7.09327 15.7405 7.52883C16.0072 6.15992 16.2072 4.85326 16.4739 3.48437C16.6072 2.92437 16.6739 2.30214 16.8739 1.74214C17.1405 0.933255 17.6739 0.559923 18.3405 0.622145C19.0739 0.746588 19.4072 1.24437 19.5405 1.86659C19.7405 3.42214 19.8739 4.91548 20.0072 6.47105C20.0739 6.84438 20.0739 7.27994 20.0739 7.83994C20.6072 7.65327 21.0072 7.46661 21.4072 7.27994C22.4072 6.78216 23.4072 6.28439 24.4072 5.84881C25.6072 5.28881 26.2739 5.28881 26.7405 5.91103C27.1405 6.47105 27.0072 7.09327 26.1405 8.02661C25.3405 8.89772 24.5405 9.76883 23.7405 10.6399C23.1405 11.2622 22.6072 11.9466 21.9405 12.6933C22.2072 13.0044 22.4739 13.3155 22.8072 13.5644C24.2739 15.0577 25.8072 16.5511 27.2739 18.0444C27.7405 18.5422 28.0072 19.0399 27.6072 19.6622C27.2072 20.2844 26.6072 20.2844 25.9405 20.1599C24.0739 19.7866 22.2072 19.4133 20.0739 18.9777Z" fill="#E0E0E0"/>
</g>
<defs>
<clipPath id="clip0_54_1726">
<rect width="28" height="28" fill="white" transform="translate(0.0738525)"/>
</clipPath>
</defs>
</svg>
