<svg width="29" height="28" viewBox="0 0 29 28" fill="none" xmlns="http://www.w3.org/2000/svg">
<g clip-path="url(#clip0_30_1432)">
<path fill-rule="evenodd" clip-rule="evenodd" d="M15.3523 8.78152C16.2328 8.8306 17.5322 8.21119 18.111 7.47993C17.1739 7.92209 16.2929 8.3378 15.3523 8.78152ZM20.57 10.2642C19.7625 10.5947 19.0839 10.908 18.3701 11.1577C16.2283 11.9071 14.0756 12.3398 11.9165 11.172C11.4986 10.9459 11.3307 11.1953 11.2088 11.4716C10.6268 12.7905 9.98208 14.0941 9.47452 15.4308C8.5547 17.8527 7.7092 20.2927 6.85087 22.7291C6.70385 23.1466 6.64571 23.5843 6.51518 24.1468C7.12894 23.998 7.6027 23.8824 8.07702 23.7681C10.9925 23.0646 13.9118 22.3704 16.8183 21.6445C17.0872 21.5773 17.4581 21.3211 17.4777 21.1327C17.7454 18.5205 18.5655 16.001 19.4104 13.4854C19.764 12.4328 20.1633 11.3901 20.57 10.2642ZM19.9864 25.2438C19.3573 24.8949 18.9431 24.5421 18.4388 24.4101C17.1554 24.0747 17.1484 24.1358 15.6201 24.5453C11.4824 25.6539 7.33715 26.7446 3.1925 27.8364C2.58906 27.9953 2.00211 28.1069 1.43389 27.6858C1.15859 27.4819 0.736821 27.405 0.295215 27.2378C0.584496 27.0261 0.812009 26.8596 1.18849 26.5839C0.734866 26.6585 0.479405 26.7007 0.0738525 26.7677C0.177267 26.5622 0.210527 26.3927 0.330153 26.2845C0.47661 26.1516 0.679248 26.0118 0.885237 25.9755C1.96494 25.7846 2.19049 25.1342 2.44847 24.3868C4.13105 19.5068 5.86812 14.6389 7.5946 9.76869C7.85816 9.02533 8.16224 8.2914 8.43867 7.551C8.60891 7.09427 8.95016 6.80608 9.56784 6.78409C9.71349 6.77894 9.90995 6.77446 10.0011 6.84149C10.6613 7.32824 11.2753 7.85732 11.9615 8.31808C12.1784 8.46352 12.5971 8.53277 12.8779 8.48077C15.7559 7.94741 17.9601 6.59184 19.7081 4.73672C20.6402 3.74708 21.4773 2.70009 22.3753 1.68939C22.884 1.11658 23.4869 0.625352 24.3874 0.45526C25.0532 0.32954 25.6068 0.338504 25.9912 0.933941C26.207 1.26808 26.6793 1.48926 26.9932 1.79001C28.4208 3.1577 28.2082 4.69056 27.6385 6.24427C27.1992 7.44296 26.7109 8.63049 26.2668 9.82806C25.2354 12.6099 24.2108 15.3934 23.1996 18.1799C22.9447 18.8822 22.7297 19.5949 22.5377 20.3097C22.4768 20.5361 22.469 20.8137 22.5788 21.0188C22.8594 21.5421 22.5134 21.8991 22.2087 22.3018C21.8504 22.7756 21.5239 23.2681 21.2366 23.7721C20.8993 24.364 20.8247 25.1026 19.9864 25.2438Z" fill="#E0E0E0"/>
</g>
<defs>
<clipPath id="clip0_30_1432">
<rect width="28" height="28" fill="white" transform="translate(0.0738525)"/>
</clipPath>
</defs>
</svg>
