<svg width="29" height="28" viewBox="0 0 29 28" fill="none" xmlns="http://www.w3.org/2000/svg">
<g clip-path="url(#clip0_30_1426)">
<path d="M11.6153 25.4593C11.547 24.6296 11.4787 23.8 11.3421 22.9704C11.0007 21.2593 10.0446 19.8074 8.26896 18.7185C6.42505 17.5778 4.64944 16.3852 2.2592 16.0222C1.91773 15.9704 1.50798 15.8148 1.3031 15.6074C1.02993 15.2963 0.620174 14.8815 0.688466 14.5704C0.756759 14.2593 1.3031 13.8445 1.78115 13.7926C8.06409 12.9111 11.0007 9.5926 12.708 5.34075C13.1177 4.30372 13.3226 3.16298 13.5958 2.07409C13.8007 1.71113 13.7324 1.34816 13.9373 1.03705C14.1421 0.777794 14.5519 0.466682 14.8251 0.518534C15.0982 0.518534 15.4397 0.881497 15.6446 1.14076C15.7812 1.34816 15.7129 1.60742 15.7129 1.86668C15.6446 2.95557 15.5763 3.99261 15.508 5.0815C15.4397 6.27408 15.3031 7.46668 15.3031 8.65927C15.2348 10.6296 16.8738 11.8222 18.9226 12.6C20.2202 13.0667 21.6543 13.3259 23.2251 13.1704C24.1812 13.0667 25.1373 13.2741 26.1616 13.3778C26.5031 13.4296 26.8446 13.4815 27.0494 13.637C27.3226 13.8963 27.6641 14.2593 27.6641 14.5185C27.6641 14.9852 27.0494 15.037 26.5031 14.9852C25.6153 14.9333 24.7958 14.8815 23.908 14.7778C22.269 14.6222 20.7665 14.9333 19.2641 15.3482C18.5812 15.5556 17.8982 15.9704 17.5568 16.437C16.8055 17.3185 16.0543 18.2 15.7129 19.1852C14.8934 21.4667 14.347 23.8 13.6641 26.0815C13.5275 26.5482 13.5275 27.0148 13.2543 27.4296C13.1177 27.6889 12.6397 28 12.3665 28C12.0934 28 11.6153 27.637 11.6153 27.3778C11.547 26.7556 11.6153 26.0815 11.6153 25.4593Z" fill="#E0E0E0"/>
</g>
<defs>
<clipPath id="clip0_30_1426">
<rect width="28" height="28" fill="white" transform="translate(0.0738525)"/>
</clipPath>
</defs>
</svg>
