<svg width="29" height="28" viewBox="0 0 29 28" fill="none" xmlns="http://www.w3.org/2000/svg">
<g clip-path="url(#clip0_48_1686)">
<path fill-rule="evenodd" clip-rule="evenodd" d="M9.46959 1.91088C8.55805 1.86964 7.73572 2.13671 7.04812 2.87445L9.46959 1.91088ZM15.1889 23.4777C16.2953 23.371 17.2557 22.8807 18.101 22.0679C17.1301 22.5376 16.1595 23.0076 15.1889 23.4777ZM12.3129 27.5024C8.37552 27.6898 4.98818 25.3429 2.2053 21.6365C0.300524 19.0999 -0.118096 16.0116 0.14506 12.7457C0.45295 8.92296 2.00979 5.84055 4.42735 3.3725C6.76372 0.986614 9.50079 0.162536 12.5584 1.14124C13.6 1.47468 14.2447 2.3213 14.6843 3.4147C14.8136 3.73654 14.8851 4.10992 14.6349 4.40212C14.3966 4.68142 14.1777 4.38891 13.9509 4.30708C12.6976 3.85477 11.5226 4.3016 10.3772 4.80836C8.29625 5.72907 6.73528 7.40396 5.42061 9.47511C3.94577 11.7985 3.31784 14.3877 3.31591 17.2384C3.31508 18.6488 3.83559 19.6836 4.80096 20.499C7.74512 22.9857 11.0477 23.335 14.4306 22.4187C17.9082 21.4768 20.8007 19.2268 22.9297 15.8767C25.1131 12.4412 25.2987 8.75668 23.3099 5.07381C22.9731 4.45011 23.1449 3.85316 23.1029 3.25234C23.0772 2.8883 23.3873 2.70339 23.7595 2.74913C24.5827 2.84997 25.1129 3.4073 25.5665 4.15534C26.6023 5.86438 27.1237 7.79666 27.4128 9.83016C27.9325 13.4837 27.4263 16.8995 25.6372 20.0071C25.5141 20.22 25.4075 20.431 25.1772 20.5563C24.7953 20.7638 24.5429 21.0795 24.3949 21.6149C24.2775 22.0386 23.8686 22.3756 23.5488 22.6967C20.4537 25.8098 16.9155 27.5819 12.3129 27.5024Z" fill="#E0E0E0"/>
</g>
<defs>
<clipPath id="clip0_48_1686">
<rect width="28" height="28" fill="white" transform="translate(0.0738525)"/>
</clipPath>
</defs>
</svg>
